<?xml version="1.0" encoding="utf-8"?>
<!-- Generator: Adobe Illustrator 25.4.1, SVG Export Plug-In . SVG Version: 6.00 Build 0)  -->
<svg version="1.1" id="Capa_1" xmlns="http://www.w3.org/2000/svg" xmlns:xlink="http://www.w3.org/1999/xlink" x="0px" y="0px"
	 viewBox="310 250 1500 1500" enable-background="new 0 0 2122 2122" xml:space="preserve">
<g>

		<path fill="none" stroke="#FFFFFF" stroke-width="39.9119" stroke-linecap="round" stroke-linejoin="round" stroke-miterlimit="10" stroke-dasharray="1381.9508,74.8349,4.989,59.8679" d="
		M1560.668,658.479c139.809,282.342,24.268,624.564-258.063,764.368c-225.874,111.863-499.649,19.421-611.497-206.448
		c-89.48-180.69-15.537-399.714,165.162-489.199c144.56-71.585,319.773-12.419,391.354,132.135"/>

		<path fill="none" stroke="#FFFFFF" stroke-width="39.9119" stroke-linecap="round" stroke-linejoin="round" stroke-miterlimit="10" stroke-dasharray="1381.9508,74.8349,4.989,59.8679" d="
		M712.959,483.645c282.336-139.818,624.559-24.272,764.367,258.064c111.854,225.868,19.421,499.645-206.448,611.492
		c-180.7,89.485-399.719,15.537-489.199-165.168c-71.585-144.555-12.419-319.764,132.136-391.349"/>

		<path fill="none" stroke="#FFFFFF" stroke-width="39.9119" stroke-linecap="round" stroke-linejoin="round" stroke-miterlimit="10" stroke-dasharray="1381.9508,74.8349,4.989,59.8679" d="
		M520.365,1324.694c-139.818-282.346-24.267-624.563,258.065-764.373c225.868-111.857,499.645-19.42,611.492,206.449
		c89.485,180.694,15.537,399.714-165.163,489.199c-144.554,71.585-319.769,12.423-391.354-132.131"/>

		<path fill="none" stroke="#FFFFFF" stroke-width="39.9119" stroke-linecap="round" stroke-linejoin="round" stroke-miterlimit="10" stroke-dasharray="1381.9508,74.8349,4.989,59.8679" d="
		M1524.829,1422.584c-240.246,219.326-612.798,202.352-832.124-37.89c-175.453-192.188-161.879-490.231,30.309-665.685
		c153.763-140.379,392.192-129.51,532.561,24.248c112.297,123.005,103.6,313.741-19.405,426.027"/>

		<path fill="none" stroke="#FFFFFF" stroke-width="24.945" stroke-linecap="round" stroke-linejoin="round" stroke-miterlimit="10" stroke-dasharray="1416.8738,119.7358,4.989,59.8679" d="
		M1518.408,1181.105c81.344,31.922,70.488,99.419,70.488,99.419h0.96c0,0-10.84-67.497,70.484-99.419
		c-81.324-31.907-70.484-99.42-70.484-99.42h-0.96C1588.896,1081.686,1599.752,1149.198,1518.408,1181.105z"/>

		<path fill="none" stroke="#FFFFFF" stroke-width="24.945" stroke-linecap="round" stroke-linejoin="round" stroke-miterlimit="10" stroke-dasharray="1416.8738,119.7358,4.989,59.8679" d="
		M535.756,612.233c81.345,31.922,70.49,99.419,70.49,99.419h0.959c0,0-10.84-67.497,70.484-99.419
		c-81.324-31.912-70.484-99.419-70.484-99.419h-0.959C606.246,512.815,617.101,580.321,535.756,612.233z"/>

		<path fill="none" stroke="#FFFFFF" stroke-width="24.945" stroke-linecap="round" stroke-linejoin="round" stroke-miterlimit="10" stroke-dasharray="1416.8738,119.7358,4.989,59.8679" d="
		M1065.604,1597.643c81.344,31.911,70.488,99.409,70.488,99.409h0.96c0,0-10.84-67.498,70.484-99.409
		c-81.324-31.922-70.484-99.42-70.484-99.42h-0.96C1136.092,1498.223,1146.947,1565.721,1065.604,1597.643z"/>

		<path fill="none" stroke="#FFFFFF" stroke-width="39.9119" stroke-linecap="round" stroke-linejoin="round" stroke-miterlimit="10" stroke-dasharray="1416.8738,119.7358,4.989,59.8679" d="
		M926.281,1007.158c154.025,60.433,133.476,188.241,133.476,188.241h1.817c0,0-20.531-127.809,133.465-188.241
		c-153.996-60.443-133.465-188.257-133.465-188.257h-1.817C1059.757,818.901,1080.307,946.715,926.281,1007.158z"/>

		<path fill="none" stroke="#FFFFFF" stroke-width="24.945" stroke-linecap="round" stroke-linejoin="round" stroke-miterlimit="10" stroke-dasharray="1416.8738,119.7358,4.989,59.8679" d="
		M498.539,1131.06c81.339,31.912,70.488,99.409,70.488,99.409h0.955c0,0-10.84-67.497,70.484-99.409
		c-81.324-31.922-70.484-99.419-70.484-99.419h-0.955C569.027,1031.641,579.878,1099.138,498.539,1131.06z"/>

		<path fill="none" stroke="#FFFFFF" stroke-width="24.945" stroke-linecap="round" stroke-linejoin="round" stroke-miterlimit="10" stroke-dasharray="1416.8738,119.7358,4.989,59.8679" d="
		M1356.957,595.278c95.21,37.359,82.509,116.374,82.509,116.374h1.12c0,0-12.687-79.015,82.509-116.374
		c-95.195-37.349-82.509-116.374-82.509-116.374h-1.12C1439.466,478.904,1452.167,557.93,1356.957,595.278z"/>
</g>
</svg>
